<svg xmlns="http://www.w3.org/2000/svg" width="289" height="52" viewBox="0 0 289 52" fill="none"><g clip-path="url(#clip0_23597_508)"><path d="M25.9445 22.5515C25.3572 20.8186 23.7215 19.5693 21.7909 19.5693C19.3685 19.5693 17.5173 21.5356 17.4046 23.9571C17.2718 26.778 19.2461 31.78 25.9145 34.3231C25.9243 34.3279 25.9315 34.3279 25.9444 34.3312L25.9445 22.5515Z" fill="#FAEEB5"></path><path d="M25.9044 22.5515C26.4918 20.8186 28.1259 19.5693 30.0564 19.5693C32.4788 19.5693 34.33 21.5356 34.4442 23.9571C34.5738 26.778 32.6011 31.78 25.9327 34.3231C25.9214 34.3279 25.9141 34.3279 25.9043 34.3312L25.9044 22.5515Z" fill="#FAEEB5"></path><path d="M26.2667 9.34784V9.31863C26.2853 9.32511 26.3031 9.32912 26.3186 9.33241C26.3348 9.32912 26.3534 9.32511 26.3704 9.31863V9.34856C37.4566 13.5833 44.0926 20.1414 47.688 26.5256C50.4053 21.6978 51.384 16.9673 51.2179 13.418C50.8874 6.34785 45.4789 0.600586 38.4013 0.600586C32.8128 0.600586 28.0718 4.18549 26.3187 9.17608C24.5671 4.18549 19.826 0.600586 14.2376 0.600586C7.15835 0.600586 1.74978 6.34785 1.41921 13.4181C1.25311 16.9674 2.23257 21.6971 4.95074 26.5257C8.54459 20.1408 15.1822 13.5826 26.2667 9.34784Z" fill="#B5C8B8"></path><path d="M25.972 43.1046V43.1346C25.9551 43.1281 25.9372 43.1241 25.9202 43.12C25.9039 43.124 25.887 43.1281 25.8684 43.1346V43.1046C14.7837 38.8707 8.14614 32.3126 4.55228 25.9277C1.83421 30.7562 0.85475 35.486 1.02075 39.0353C1.35132 46.1056 6.7599 51.8528 13.8375 51.8528C19.4276 51.8528 24.167 48.2679 25.9201 43.2773C27.6733 48.2679 32.4143 51.8528 38.0012 51.8528C45.0804 51.8528 50.489 46.1056 50.8195 39.0353C50.9857 35.486 50.0062 30.7563 47.2897 25.9277C43.6942 32.3126 37.0582 38.8707 25.972 43.1046Z" fill="#B5C8B8"></path></g><path d="M78.1908 40.0302C75.7944 40.0302 73.7387 39.6266 72.0234 38.8194C70.3081 38.0122 68.9082 36.9402 67.8235 35.6033C66.7641 34.2412 65.9822 32.7403 65.4777 31.1008C64.9732 29.4612 64.7209 27.8216 64.7209 26.182C64.7209 24.5929 64.9858 22.9911 65.5155 21.3768C66.0452 19.7372 66.8524 18.2363 67.9371 16.8742C69.0469 15.5121 70.4217 14.4149 72.0612 13.5824C73.726 12.75 75.6683 12.3338 77.8881 12.3338C80.2087 12.3338 82.214 12.75 83.9041 13.5824C85.5941 14.4149 86.9814 15.5247 88.0661 16.9121C89.176 18.2742 89.9958 19.7624 90.5255 21.3768C91.0804 22.9911 91.3579 24.5929 91.3579 26.182C91.3579 27.7459 91.093 29.3477 90.5633 30.9873C90.0336 32.6016 89.2138 34.1025 88.1039 35.4898C87.0193 36.8519 85.6572 37.9492 84.0176 38.7816C82.378 39.614 80.4357 40.0302 78.1908 40.0302ZM78.2664 38.4789C79.8303 38.4789 81.1925 38.151 82.3528 37.4951C83.5131 36.8141 84.4716 35.9186 85.2284 34.8087C86.0103 33.6737 86.5905 32.425 86.9688 31.0629C87.3724 29.6756 87.5742 28.2882 87.5742 26.9009C87.5742 25.337 87.3598 23.7857 86.931 22.247C86.5022 20.7083 85.8716 19.3084 85.0392 18.0472C84.2068 16.7859 83.1726 15.777 81.9366 15.0202C80.7258 14.2383 79.3385 13.8473 77.7746 13.8473C76.2106 13.8473 74.8359 14.1878 73.6504 14.8689C72.4901 15.5499 71.5189 16.458 70.737 17.5931C69.9802 18.703 69.4001 19.9516 68.9965 21.3389C68.6181 22.7011 68.4289 24.0884 68.4289 25.501C68.4289 26.8883 68.6181 28.3387 68.9965 29.8522C69.4001 31.3656 70.0055 32.7782 70.8126 34.0899C71.6198 35.4015 72.6414 36.4609 73.8774 37.2681C75.1134 38.0753 76.5764 38.4789 78.2664 38.4789ZM91.8827 39.4248V38.2897C92.6647 38.2897 93.207 38.1005 93.5097 37.7222C93.8124 37.3186 93.9889 36.7762 94.0394 36.0952C94.0898 35.3889 94.1151 34.5817 94.1151 33.6737L94.1529 25.0469C94.1529 24.6433 94.1529 24.2397 94.1529 23.8361C94.1781 23.4326 94.2286 23.0164 94.3043 22.5875C93.8502 22.6128 93.3962 22.638 92.9421 22.6632C92.5133 22.6884 92.0719 22.7137 91.6179 22.7389V21.1498C92.7277 21.1498 93.5601 21.0993 94.1151 20.9984C94.6952 20.8975 95.124 20.7714 95.4015 20.62C95.679 20.4687 95.906 20.3047 96.0826 20.1282H97.1798C97.2051 20.3047 97.2177 20.5065 97.2177 20.7336C97.2429 20.9606 97.2681 21.2128 97.2933 21.4903C97.3186 21.7678 97.3312 22.0831 97.3312 22.4362C97.8861 21.9569 98.4915 21.5281 99.1473 21.1498C99.8284 20.7714 100.535 20.4687 101.266 20.2417C102.023 20.0147 102.767 19.9011 103.499 19.9011C105.693 19.9011 107.295 20.5948 108.304 21.9822C109.313 23.3443 109.817 25.4757 109.817 28.3765V35.4141C109.817 35.9186 109.805 36.3727 109.779 36.7762C109.779 37.1546 109.742 37.5582 109.666 37.987C110.069 37.9618 110.46 37.9492 110.839 37.9492C111.242 37.924 111.646 37.8987 112.05 37.8735V39.4248H104.331V38.2897C105.113 38.2897 105.655 38.1005 105.958 37.7222C106.261 37.3186 106.437 36.7762 106.488 36.0952C106.538 35.3889 106.563 34.5817 106.563 33.6737V28.3765C106.538 26.2072 106.172 24.5677 105.466 23.4578C104.785 22.3479 103.7 21.8056 102.212 21.8308C101.304 21.856 100.409 22.0957 99.5257 22.5497C98.6681 23.0037 97.9492 23.5839 97.369 24.2902C97.3942 24.492 97.4069 24.719 97.4069 24.9712C97.4069 25.2235 97.4069 25.4883 97.4069 25.7658L97.369 35.4141C97.369 35.9186 97.3564 36.3727 97.3312 36.7762C97.3312 37.1546 97.2933 37.5582 97.2177 37.987C97.6213 37.9618 98.0122 37.9492 98.3906 37.9492C98.7942 37.924 99.1978 37.8987 99.6014 37.8735V39.4248H91.8827ZM111.684 38.2897C112.466 38.2897 113.009 38.1005 113.311 37.7222C113.614 37.3186 113.791 36.7762 113.841 36.0952C113.892 35.3889 113.917 34.5817 113.917 33.6737V15.777C113.917 15.3734 113.917 14.995 113.917 14.6419C113.942 14.2635 113.98 13.8221 114.03 13.3176C113.576 13.3428 113.122 13.368 112.668 13.3933C112.239 13.4185 111.798 13.4437 111.344 13.4689V11.8798C112.454 11.8798 113.311 11.8294 113.917 11.7285C114.547 11.6276 115.014 11.5014 115.317 11.3501C115.645 11.1987 115.897 11.0348 116.073 10.8582H117.171L117.209 35.4141C117.209 35.9186 117.196 36.3727 117.171 36.7762C117.145 37.1546 117.095 37.5582 117.019 37.987C117.423 37.9618 117.814 37.9492 118.192 37.9492C118.596 37.924 118.999 37.8987 119.403 37.8735V39.4248H111.684V38.2897ZM119.569 38.2897C120.351 38.2897 120.893 38.1005 121.196 37.7222C121.499 37.3186 121.675 36.7762 121.726 36.0952C121.776 35.3889 121.801 34.5817 121.801 33.6737V25.0469C121.801 24.6433 121.814 24.265 121.839 23.9118C121.864 23.5335 121.902 23.092 121.953 22.5875C121.499 22.6128 121.045 22.638 120.591 22.6632C120.162 22.6884 119.72 22.7137 119.266 22.7389V21.1498C120.376 21.1498 121.234 21.0993 121.839 20.9984C122.445 20.8975 122.899 20.7714 123.201 20.62C123.529 20.4687 123.781 20.3047 123.958 20.1282H125.055V35.4141C125.055 35.9186 125.043 36.3727 125.017 36.7762C125.017 37.1546 124.98 37.5582 124.904 37.987C125.308 37.9618 125.699 37.9492 126.077 37.9492C126.48 37.924 126.884 37.8987 127.288 37.8735V39.4248H119.569V38.2897ZM123.201 16.3824C122.672 16.3824 122.205 16.1679 121.801 15.7391C121.398 15.3103 121.196 14.7806 121.196 14.15C121.196 13.5194 121.398 12.9897 121.801 12.5609C122.23 12.1068 122.709 11.8798 123.239 11.8798C123.819 11.8798 124.299 12.1068 124.677 12.5609C125.081 12.9897 125.282 13.5194 125.282 14.15C125.282 14.7806 125.068 15.3103 124.639 15.7391C124.236 16.1679 123.756 16.3824 123.201 16.3824ZM127.408 39.4248V38.2897C128.19 38.2897 128.732 38.1005 129.035 37.7222C129.338 37.3186 129.514 36.7762 129.565 36.0952C129.615 35.3889 129.64 34.5817 129.64 33.6737L129.678 25.0469C129.678 24.6433 129.678 24.2397 129.678 23.8361C129.703 23.4326 129.754 23.0164 129.829 22.5875C129.375 22.6128 128.921 22.638 128.467 22.6632C128.038 22.6884 127.597 22.7137 127.143 22.7389V21.1498C128.253 21.1498 129.085 21.0993 129.64 20.9984C130.22 20.8975 130.649 20.7714 130.927 20.62C131.204 20.4687 131.431 20.3047 131.608 20.1282H132.705C132.73 20.3047 132.743 20.5065 132.743 20.7336C132.768 20.9606 132.793 21.2128 132.818 21.4903C132.844 21.7678 132.856 22.0831 132.856 22.4362C133.411 21.9569 134.017 21.5281 134.672 21.1498C135.354 20.7714 136.06 20.4687 136.791 20.2417C137.548 20.0147 138.292 19.9011 139.024 19.9011C141.218 19.9011 142.82 20.5948 143.829 21.9822C144.838 23.3443 145.342 25.4757 145.342 28.3765V35.4141C145.342 35.9186 145.33 36.3727 145.305 36.7762C145.305 37.1546 145.267 37.5582 145.191 37.987C145.595 37.9618 145.986 37.9492 146.364 37.9492C146.768 37.924 147.171 37.8987 147.575 37.8735V39.4248H139.856V38.2897C140.638 38.2897 141.18 38.1005 141.483 37.7222C141.786 37.3186 141.962 36.7762 142.013 36.0952C142.063 35.3889 142.088 34.5817 142.088 33.6737V28.3765C142.063 26.2072 141.697 24.5677 140.991 23.4578C140.31 22.3479 139.225 21.8056 137.737 21.8308C136.829 21.856 135.934 22.0957 135.051 22.5497C134.193 23.0037 133.474 23.5839 132.894 24.2902C132.919 24.492 132.932 24.719 132.932 24.9712C132.932 25.2235 132.932 25.4883 132.932 25.7658L132.894 35.4141C132.894 35.9186 132.882 36.3727 132.856 36.7762C132.856 37.1546 132.818 37.5582 132.743 37.987C133.146 37.9618 133.537 37.9492 133.916 37.9492C134.319 37.924 134.723 37.8987 135.126 37.8735V39.4248H127.408ZM156.744 40.0302C155.004 40.0302 153.427 39.6266 152.015 38.8194C150.627 37.987 149.53 36.8267 148.723 35.3385C147.916 33.825 147.512 32.0467 147.512 30.0035C147.512 28.2378 147.903 26.5856 148.685 25.0469C149.492 23.5082 150.615 22.2722 152.053 21.3389C153.49 20.3804 155.155 19.9011 157.047 19.9011C158.106 19.9011 159.09 20.0777 159.998 20.4309C160.932 20.7588 161.751 21.2759 162.458 21.9822C163.164 22.6632 163.719 23.5335 164.122 24.5929C164.526 25.6271 164.728 26.8505 164.728 28.263L151.409 28.49C151.409 30.4071 151.611 32.0971 152.015 33.5601C152.444 34.9979 153.125 36.1204 154.058 36.9276C154.991 37.7095 156.189 38.1005 157.652 38.1005C158.434 38.1005 159.229 37.9618 160.036 37.6843C160.869 37.4069 161.638 37.0285 162.344 36.5492C163.05 36.07 163.618 35.5403 164.047 34.9601L164.955 35.7168C164.274 36.7762 163.454 37.6213 162.495 38.2519C161.537 38.8825 160.553 39.3365 159.544 39.614C158.535 39.8915 157.602 40.0302 156.744 40.0302ZM151.523 26.9009H161.171C161.171 25.9928 161.032 25.1226 160.755 24.2902C160.503 23.4326 160.074 22.7389 159.469 22.2092C158.863 21.6542 158.069 21.3768 157.085 21.3768C155.622 21.3768 154.398 21.8182 153.415 22.7011C152.456 23.5587 151.826 24.9586 151.523 26.9009Z" fill="#FBF7F4"></path><path d="M187.54 12.9392L187.351 20.9227H185.913C185.964 19.4345 185.875 18.1985 185.648 17.2148C185.421 16.231 184.967 15.4995 184.286 15.0202C183.63 14.5157 182.647 14.2761 181.335 14.3013L178.119 14.3392L176.87 34.9223C176.845 35.6033 176.807 36.1961 176.757 36.7006C176.706 37.1798 176.656 37.5834 176.605 37.9113C176.959 37.8861 177.312 37.8735 177.665 37.8735C178.018 37.8483 178.358 37.8231 178.686 37.7978C179.04 37.7726 179.393 37.76 179.746 37.76L179.67 39.4248H170.93L171.006 38.1762C171.838 38.1258 172.431 37.8987 172.784 37.4951C173.162 37.0916 173.415 36.5492 173.541 35.8682C173.667 35.1619 173.755 34.3799 173.806 33.5223L174.978 14.3392L171.081 14.377C169.492 14.377 168.344 14.9067 167.638 15.9661C166.932 17.0256 166.516 18.6778 166.39 20.9227H164.99L165.633 12.9392H187.54ZM201.224 39.841C200.039 39.841 199.232 39.5257 198.803 38.8951C198.374 38.2645 198.16 37.369 198.16 36.2087C198.16 35.5024 198.21 34.67 198.311 33.7115C198.437 32.7277 198.563 31.6935 198.689 30.6089C198.841 29.5242 198.967 28.427 199.068 27.3171C199.194 26.2072 199.257 25.1604 199.257 24.1767C199.257 23.874 199.206 23.5461 199.106 23.1929C199.005 22.8398 198.828 22.5371 198.576 22.2849C198.324 22.0074 197.945 21.8686 197.441 21.8686C196.76 21.8686 196.079 22.184 195.398 22.8146C194.717 23.4199 194.061 24.2524 193.43 25.3118C192.825 26.3712 192.27 27.582 191.765 28.9441C191.286 30.281 190.908 31.6809 190.63 33.1439C190.353 34.5817 190.214 36.0069 190.214 37.4195C190.214 37.7978 190.214 38.151 190.214 38.4789C190.239 38.7816 190.264 39.0969 190.29 39.4248H187.187C187.162 39.2482 187.149 39.0969 187.149 38.9708C187.149 38.8194 187.149 38.6428 187.149 38.4411C187.149 37.76 187.187 36.7132 187.263 35.3006C187.338 33.8881 187.439 32.2863 187.565 30.4954C187.692 28.6792 187.83 26.8252 187.982 24.9334C188.158 23.0416 188.335 21.2507 188.511 19.5606C188.688 17.8454 188.865 16.4076 189.041 15.2473C189.142 14.5914 189.205 14.1752 189.23 13.9986C189.281 13.8221 189.331 13.5698 189.382 13.2419L186.733 13.3933L186.884 11.8798C187.994 11.8798 188.852 11.8294 189.457 11.7285C190.088 11.6276 190.567 11.5014 190.895 11.3501C191.223 11.1987 191.488 11.0348 191.69 10.8582H192.787C192.686 11.4888 192.572 12.1951 192.446 12.9771C192.32 13.759 192.194 14.5284 192.068 15.2851C191.942 16.0418 191.841 16.7103 191.765 17.2904C191.69 17.921 191.589 18.7408 191.463 19.7498C191.362 20.7336 191.248 21.7804 191.122 22.8902C191.021 23.9749 190.92 25.0217 190.819 26.0307C190.744 27.0396 190.681 27.872 190.63 28.5279H190.744C191.601 26.2325 192.446 24.4794 193.279 23.2686C194.111 22.0578 194.931 21.2254 195.738 20.7714C196.571 20.3174 197.39 20.0903 198.198 20.0903C199.711 20.0903 200.783 20.5822 201.414 21.566C202.044 22.5245 202.36 23.6722 202.36 25.0091C202.36 26.3964 202.271 27.8216 202.095 29.2846C201.918 30.7224 201.742 32.0593 201.565 33.2953C201.388 34.5061 201.3 35.4772 201.3 36.2087C201.3 36.6627 201.351 37.0663 201.451 37.4195C201.578 37.7726 201.868 37.9492 202.322 37.9492C202.751 37.9492 203.217 37.6843 203.722 37.1546C204.251 36.5997 204.705 35.6412 205.084 34.279L206.03 34.5439C205.954 34.9727 205.803 35.4898 205.576 36.0952C205.349 36.7006 205.033 37.2933 204.63 37.8735C204.251 38.4284 203.772 38.8951 203.192 39.2735C202.637 39.6518 201.981 39.841 201.224 39.841ZM214.399 20.0903C215.307 20.0903 216.165 20.2291 216.972 20.5065C217.779 20.784 218.435 21.238 218.939 21.8686C219.444 22.4993 219.696 23.3569 219.696 24.4415C219.696 25.4757 219.343 26.3712 218.636 27.1279C217.93 27.8847 217.01 28.5153 215.874 29.0198C214.739 29.499 213.529 29.89 212.242 30.1927C210.956 30.4954 209.72 30.7098 208.534 30.8359C208.534 32.3998 208.685 33.7115 208.988 34.7709C209.316 35.8303 209.795 36.6249 210.426 37.1546C211.057 37.6843 211.864 37.9492 212.848 37.9492C213.579 37.9492 214.311 37.7852 215.042 37.4573C215.799 37.1294 216.518 36.6375 217.199 35.9817C217.88 35.3006 218.498 34.4304 219.053 33.371L220.301 34.0899C219.595 35.4015 218.838 36.4862 218.031 37.3438C217.224 38.2014 216.341 38.832 215.383 39.2356C214.424 39.6392 213.365 39.841 212.204 39.841C209.808 39.841 208.042 39.0969 206.907 37.6087C205.772 36.0952 205.205 34.1151 205.205 31.6683C205.205 30.2053 205.394 28.7801 205.772 27.3928C206.15 26.0054 206.718 24.7695 207.475 23.6848C208.231 22.5749 209.19 21.7047 210.35 21.0741C211.511 20.4182 212.86 20.0903 214.399 20.0903ZM213.869 21.3768C212.709 21.3768 211.75 21.7678 210.994 22.5497C210.262 23.3317 209.694 24.3406 209.291 25.5766C208.913 26.8126 208.673 28.1117 208.572 29.4738C209.909 29.2972 211.183 28.9819 212.393 28.5279C213.604 28.0738 214.601 27.4937 215.383 26.7874C216.165 26.0559 216.555 25.2109 216.555 24.2524C216.555 23.4452 216.328 22.7641 215.874 22.2092C215.446 21.6542 214.777 21.3768 213.869 21.3768ZM222.779 39.4248C222.754 39.2482 222.741 39.0969 222.741 38.9708C222.741 38.8194 222.741 38.6428 222.741 38.4411C222.741 38.0122 222.754 37.5078 222.779 36.9276C222.804 36.3222 222.855 35.5276 222.931 34.5439C223.031 33.5601 223.17 32.2737 223.347 30.6846C223.523 29.045 223.662 27.809 223.763 26.9766C223.864 26.1442 223.939 25.5388 223.99 25.1604C224.04 24.7568 224.066 24.4289 224.066 24.1767C224.091 23.6722 224.053 23.1803 223.952 22.7011C223.876 22.2218 223.574 21.9822 223.044 21.9822C222.64 21.9822 222.174 22.2596 221.644 22.8146C221.114 23.3695 220.66 24.3154 220.282 25.6523L219.223 25.4253C219.298 24.9712 219.45 24.4541 219.677 23.874C219.929 23.2686 220.257 22.6758 220.66 22.0957C221.064 21.5155 221.556 21.0362 222.136 20.6579C222.716 20.2795 223.385 20.0903 224.141 20.0903C225.276 20.0903 226.033 20.4813 226.411 21.2633C226.79 22.0452 226.954 23.092 226.903 24.4037C226.878 24.9586 226.802 25.5766 226.676 26.2577C226.575 26.9135 226.462 27.6072 226.336 28.3387H226.449C227.181 26.1442 227.938 24.4541 228.72 23.2686C229.527 22.0831 230.334 21.2633 231.141 20.8092C231.973 20.33 232.793 20.0903 233.6 20.0903C234.357 20.0903 234.988 20.2921 235.492 20.6957C235.997 21.0741 236.249 21.6038 236.249 22.2849C236.249 22.7389 236.085 23.1551 235.757 23.5335C235.454 23.9118 235.038 24.101 234.508 24.101C234.054 24.101 233.663 23.9623 233.336 23.6848C233.008 23.4073 232.818 23.0164 232.768 22.5119C232.062 22.3605 231.368 22.5875 230.687 23.1929C230.031 23.7983 229.401 24.6686 228.795 25.8036C228.215 26.9135 227.698 28.1621 227.244 29.5495C226.815 30.9368 226.475 32.3494 226.222 33.7872C225.97 35.2249 225.844 36.5618 225.844 37.7978C225.844 38.1762 225.844 38.4663 225.844 38.6681C225.869 38.8446 225.894 39.0969 225.92 39.4248H222.779ZM245.231 20.0903C245.987 20.0903 246.82 20.1534 247.728 20.2795C248.636 20.3804 249.493 20.5318 250.301 20.7336C250.099 22.247 249.897 23.7605 249.695 25.2739C249.519 26.7622 249.342 28.1874 249.166 29.5495C249.014 30.8864 248.888 32.0971 248.787 33.1818C248.686 34.2412 248.636 35.0736 248.636 35.679C248.636 36.1835 248.674 36.688 248.749 37.1924C248.825 37.6969 249.14 37.9492 249.695 37.9492C250.124 37.9492 250.591 37.6717 251.095 37.1168C251.625 36.5618 252.079 35.6159 252.457 34.279L253.517 34.5061C253.441 34.9601 253.277 35.4898 253.025 36.0952C252.798 36.6753 252.483 37.2555 252.079 37.8357C251.675 38.4158 251.184 38.8951 250.603 39.2735C250.023 39.6518 249.355 39.841 248.598 39.841C247.589 39.841 246.87 39.5257 246.441 38.8951C246.013 38.2645 245.798 37.4447 245.798 36.4357C245.798 35.7042 245.861 34.9096 245.987 34.052C246.139 33.1944 246.303 32.2989 246.479 31.3656H246.366C245.76 33.2322 245.13 34.7331 244.474 35.8682C243.843 36.978 243.2 37.8231 242.544 38.4032C241.914 38.9834 241.296 39.3617 240.69 39.5383C240.085 39.7401 239.517 39.841 238.988 39.841C237.625 39.841 236.478 39.3365 235.544 38.3275C234.636 37.3186 234.182 35.6285 234.182 33.2574C234.182 31.4917 234.409 29.8143 234.863 28.2252C235.317 26.6361 235.998 25.2361 236.907 24.0253C237.84 22.7893 239 21.8308 240.387 21.1498C241.775 20.4435 243.389 20.0903 245.231 20.0903ZM244.058 21.4524C242.923 21.4524 241.926 21.7678 241.069 22.3984C240.236 23.029 239.542 23.8866 238.988 24.9712C238.433 26.0307 238.016 27.2288 237.739 28.5657C237.487 29.8774 237.361 31.2269 237.361 32.6142C237.361 34.2286 237.537 35.5655 237.89 36.6249C238.243 37.6591 238.887 38.1762 239.82 38.1762C240.501 38.1762 241.182 37.8357 241.863 37.1546C242.569 36.4736 243.225 35.5655 243.831 34.4304C244.436 33.2701 244.978 31.9836 245.458 30.5711C245.937 29.1333 246.315 27.6703 246.593 26.182C246.87 24.6938 247.009 23.2686 247.009 21.9065C246.631 21.7551 246.189 21.6416 245.685 21.566C245.18 21.4903 244.638 21.4524 244.058 21.4524ZM252.298 49.0731V47.938C253.004 47.938 253.496 47.6984 253.773 47.2191C254.076 46.7399 254.265 46.0966 254.341 45.2895C254.442 44.5075 254.53 43.6247 254.606 42.6409C254.782 40.4716 254.959 38.378 255.135 36.36C255.337 34.3169 255.514 32.4629 255.665 30.7981C255.842 29.108 255.98 27.6703 256.081 26.4847C256.182 25.2992 256.233 24.4668 256.233 23.9875C256.233 23.483 256.182 23.029 256.081 22.6254C256.006 22.1966 255.715 21.9822 255.211 21.9822C254.807 21.9822 254.341 22.2596 253.811 22.8146C253.307 23.3695 252.865 24.3154 252.487 25.6523L251.39 25.4253C251.465 24.9712 251.617 24.4541 251.844 23.874C252.096 23.2686 252.424 22.6758 252.827 22.0957C253.231 21.5155 253.723 21.0362 254.303 20.6579C254.883 20.2795 255.552 20.0903 256.308 20.0903C257.443 20.0903 258.2 20.4939 258.578 21.3011C258.982 22.0831 259.184 23.0037 259.184 24.0632C259.184 24.8199 259.121 25.5892 258.995 26.3712C258.894 27.1279 258.78 27.7964 258.654 28.3765H258.768C259.474 26.0559 260.193 24.3028 260.924 23.1173C261.681 21.9317 262.45 21.1371 263.232 20.7336C264.014 20.3047 264.771 20.0903 265.503 20.0903C266.663 20.0903 267.621 20.4309 268.378 21.1119C269.135 21.7678 269.69 22.6506 270.043 23.7605C270.421 24.8703 270.61 26.0937 270.61 27.4306C270.61 29.8774 270.182 32.0341 269.324 33.9007C268.492 35.7673 267.243 37.2303 265.578 38.2897C263.939 39.3239 261.895 39.841 259.449 39.841C259.121 39.841 258.805 39.8284 258.503 39.8032C258.225 39.7779 257.948 39.7527 257.67 39.7275C257.544 41.6445 257.443 43.1202 257.368 44.1544C257.317 45.2138 257.267 45.9831 257.216 46.4624C257.191 46.9669 257.141 47.3579 257.065 47.6353C257.469 47.6101 257.86 47.5849 258.238 47.5597C258.642 47.5597 259.045 47.547 259.449 47.5218V49.0731H252.298ZM260.092 38.5546C261.151 38.5546 262.085 38.3402 262.892 37.9113C263.699 37.4825 264.38 36.915 264.935 36.2087C265.515 35.4772 265.982 34.6574 266.335 33.7493C266.688 32.8412 266.94 31.9079 267.092 30.9494C267.268 29.9657 267.357 29.0198 267.357 28.1117C267.357 26.9514 267.281 25.9045 267.13 24.9712C266.978 24.0127 266.713 23.256 266.335 22.7011C265.957 22.1461 265.414 21.8686 264.708 21.8686C264.027 21.8686 263.346 22.2344 262.665 22.9659C261.984 23.6974 261.353 24.6812 260.773 25.9172C260.193 27.1279 259.676 28.4774 259.222 29.9657C258.768 31.4539 258.427 32.9674 258.2 34.5061C258.099 35.061 258.011 35.6412 257.935 36.2465C257.885 36.8267 257.834 37.4447 257.784 38.1005C258.187 38.2266 258.566 38.3402 258.919 38.4411C259.297 38.5167 259.688 38.5546 260.092 38.5546ZM271.943 49.6785C271.085 49.6281 270.392 49.3758 269.862 48.9218C269.332 48.493 269.067 47.9506 269.067 47.2948C269.067 46.7146 269.244 46.2732 269.597 45.9705C269.95 45.6931 270.291 45.5543 270.619 45.5543C271.754 45.5543 272.296 46.2102 272.246 47.5218C272.397 47.5975 272.536 47.6606 272.662 47.711C272.788 47.7615 272.927 47.7867 273.078 47.7867C273.633 47.8119 274.2 47.6101 274.781 47.1813C275.386 46.7525 275.954 46.2102 276.483 45.5543C277.038 44.9237 277.517 44.2931 277.921 43.6625C278.35 43.0571 278.665 42.5905 278.867 42.2625C278.64 40.7995 278.375 39.2987 278.072 37.76C277.77 36.1961 277.417 34.6448 277.013 33.1061C276.635 31.5422 276.206 30.0413 275.727 28.6036C275.273 27.1405 274.781 25.7658 274.251 24.4794C274.074 24.0506 273.847 23.6091 273.57 23.1551C273.292 22.7011 272.901 22.4993 272.397 22.5497C271.918 22.6002 271.552 22.9785 271.3 23.6848C271.073 24.3911 271.01 25.3244 271.11 26.4847L269.9 26.6361C269.824 25.955 269.811 25.2361 269.862 24.4794C269.938 23.7226 270.102 23.0164 270.354 22.3605C270.606 21.6795 270.972 21.1371 271.451 20.7336C271.93 20.3047 272.561 20.0903 273.343 20.0903C274.2 20.0903 274.894 20.3174 275.424 20.7714C275.979 21.2254 276.42 21.7804 276.748 22.4362C277.101 23.092 277.391 23.7353 277.618 24.3659C278.098 25.6523 278.564 27.1279 279.018 28.7927C279.472 30.4575 279.863 32.1602 280.191 33.9007C280.544 35.6159 280.809 37.2177 280.986 38.7059H281.061C281.768 37.4699 282.449 36.1078 283.105 34.6196C283.76 33.1313 284.303 31.6179 284.732 30.0792C285.16 28.5153 285.375 27.0523 285.375 25.6901C285.375 25.0595 285.312 24.5046 285.186 24.0253C285.085 23.5461 284.959 23.2055 284.807 23.0037C284.706 23.0794 284.568 23.1425 284.391 23.1929C284.24 23.2182 284.063 23.2308 283.861 23.2308C283.407 23.2308 283.042 23.092 282.764 22.8146C282.487 22.5119 282.348 22.1587 282.348 21.7551C282.348 21.2002 282.525 20.784 282.878 20.5065C283.256 20.2291 283.672 20.0903 284.126 20.0903C284.908 20.0903 285.514 20.33 285.942 20.8092C286.371 21.2885 286.674 21.8939 286.85 22.6254C287.052 23.3569 287.153 24.1262 287.153 24.9334C287.153 26.5982 286.914 28.3009 286.434 30.0413C285.955 31.7818 285.324 33.4971 284.542 35.1871C283.786 36.8771 282.979 38.5041 282.121 40.068C280.86 42.3382 279.649 44.1922 278.489 45.63C277.354 47.0678 276.244 48.102 275.159 48.7326C274.074 49.3884 273.002 49.7037 271.943 49.6785Z" fill="#FAEEB5"></path><defs><clipPath id="clip0_23597_508"><rect width="51.8501" height="51.8501" fill="white"></rect></clipPath></defs></svg>