<svg width="207" height="37" viewBox="0 0 207 37" fill="none" xmlns="http://www.w3.org/2000/svg">
<g clip-path="url(#clip0_23597_500)">
<path d="M18.5135 16.0934C18.0944 14.8568 16.9272 13.9653 15.5495 13.9653C13.8209 13.9653 12.4998 15.3684 12.4195 17.0964C12.3246 19.1094 13.7335 22.6788 18.4921 24.4935C18.4991 24.497 18.5042 24.497 18.5134 24.4993L18.5135 16.0934Z" fill="#4D9595"/>
<path d="M18.4854 16.0934C18.9046 14.8568 20.0707 13.9653 21.4483 13.9653C23.1769 13.9653 24.4979 15.3684 24.5794 17.0964C24.6719 19.1094 23.2642 22.6788 18.5056 24.4935C18.4975 24.497 18.4923 24.497 18.4854 24.4993L18.4854 16.0934Z" fill="#4D9595"/>
<path d="M18.7438 6.67072V6.64987C18.7571 6.6545 18.7698 6.65736 18.7808 6.65971C18.7924 6.65736 18.8057 6.6545 18.8178 6.64987V6.67123C26.7289 9.69311 31.4643 14.373 34.03 18.9287C35.969 15.4836 36.6674 12.1079 36.5489 9.57517C36.3131 4.52994 32.4535 0.428711 27.403 0.428711C23.4151 0.428711 20.0319 2.98689 18.7809 6.54815C17.531 2.98689 14.1478 0.428711 10.1599 0.428711C5.10816 0.428711 1.24862 4.52994 1.01273 9.57524C0.894201 12.108 1.59314 15.4831 3.53282 18.9287C6.09738 14.3725 10.8339 9.6926 18.7438 6.67072Z" fill="#B5C8B8"/>
<path d="M18.5337 30.7593V30.7807C18.5216 30.7761 18.5088 30.7732 18.4967 30.7703C18.4851 30.7731 18.473 30.7761 18.4597 30.7807V30.7593C10.5497 27.738 5.81318 23.0582 3.24862 18.502C1.30902 21.9475 0.61008 25.3227 0.728539 27.8555C0.96443 32.9008 4.82397 37.002 9.87449 37.002C13.8636 37.002 17.2456 34.4438 18.4966 30.8826C19.7477 34.4438 23.1308 37.002 27.1176 37.002C32.1693 37.002 36.0289 32.9008 36.2648 27.8555C36.3833 25.3227 35.6843 21.9476 33.7458 18.502C31.1801 23.0582 26.4447 27.738 18.5337 30.7593Z" fill="#B5C8B8"/>
</g>
<path d="M55.7964 28.932C54.0864 28.932 52.6194 28.644 51.3954 28.068C50.1714 27.492 49.1724 26.727 48.3984 25.773C47.6424 24.801 47.0844 23.73 46.7244 22.56C46.3644 21.39 46.1844 20.22 46.1844 19.05C46.1844 17.916 46.3734 16.773 46.7514 15.621C47.1294 14.451 47.7054 13.38 48.4794 12.408C49.2714 11.436 50.2524 10.653 51.4224 10.059C52.6104 9.465 53.9964 9.168 55.5804 9.168C57.2364 9.168 58.6674 9.465 59.8734 10.059C61.0794 10.653 62.0694 11.445 62.8434 12.435C63.6354 13.407 64.2204 14.469 64.5984 15.621C64.9944 16.773 65.1924 17.916 65.1924 19.05C65.1924 20.166 65.0034 21.309 64.6254 22.479C64.2474 23.631 63.6624 24.702 62.8704 25.692C62.0964 26.664 61.1244 27.447 59.9544 28.041C58.7844 28.635 57.3984 28.932 55.7964 28.932ZM55.8504 27.825C56.9664 27.825 57.9384 27.591 58.7664 27.123C59.5944 26.637 60.2784 25.998 60.8184 25.206C61.3764 24.396 61.7904 23.505 62.0604 22.533C62.3484 21.543 62.4924 20.553 62.4924 19.563C62.4924 18.447 62.3394 17.34 62.0334 16.242C61.7274 15.144 61.2774 14.145 60.6834 13.245C60.0894 12.345 59.3514 11.625 58.4694 11.085C57.6054 10.527 56.6154 10.248 55.4994 10.248C54.3834 10.248 53.4024 10.491 52.5564 10.977C51.7284 11.463 51.0354 12.111 50.4774 12.921C49.9374 13.713 49.5234 14.604 49.2354 15.594C48.9654 16.566 48.8304 17.556 48.8304 18.564C48.8304 19.554 48.9654 20.589 49.2354 21.669C49.5234 22.749 49.9554 23.757 50.5314 24.693C51.1074 25.629 51.8364 26.385 52.7184 26.961C53.6004 27.537 54.6444 27.825 55.8504 27.825ZM65.5669 28.5V27.69C66.1249 27.69 66.5119 27.555 66.7279 27.285C66.9439 26.997 67.0699 26.61 67.1059 26.124C67.1419 25.62 67.1599 25.044 67.1599 24.396L67.1869 18.24C67.1869 17.952 67.1869 17.664 67.1869 17.376C67.2049 17.088 67.2409 16.791 67.2949 16.485C66.9709 16.503 66.6469 16.521 66.3229 16.539C66.0169 16.557 65.7019 16.575 65.3779 16.593V15.459C66.1699 15.459 66.7639 15.423 67.1599 15.351C67.5739 15.279 67.8799 15.189 68.0779 15.081C68.2759 14.973 68.4379 14.856 68.5639 14.73H69.3469C69.3649 14.856 69.3739 15 69.3739 15.162C69.3919 15.324 69.4099 15.504 69.4279 15.702C69.4459 15.9 69.4549 16.125 69.4549 16.377C69.8509 16.035 70.2829 15.729 70.7509 15.459C71.2369 15.189 71.7409 14.973 72.2629 14.811C72.8029 14.649 73.3339 14.568 73.8559 14.568C75.4219 14.568 76.5649 15.063 77.2849 16.053C78.0049 17.025 78.3649 18.546 78.3649 20.616V25.638C78.3649 25.998 78.3559 26.322 78.3379 26.61C78.3379 26.88 78.3109 27.168 78.2569 27.474C78.5449 27.456 78.8239 27.447 79.0939 27.447C79.3819 27.429 79.6699 27.411 79.9579 27.393V28.5H74.4499V27.69C75.0079 27.69 75.3949 27.555 75.6109 27.285C75.8269 26.997 75.9529 26.61 75.9889 26.124C76.0249 25.62 76.0429 25.044 76.0429 24.396V20.616C76.0249 19.068 75.7639 17.898 75.2599 17.106C74.7739 16.314 73.9999 15.927 72.9379 15.945C72.2899 15.963 71.6509 16.134 71.0209 16.458C70.4089 16.782 69.8959 17.196 69.4819 17.7C69.4999 17.844 69.5089 18.006 69.5089 18.186C69.5089 18.366 69.5089 18.555 69.5089 18.753L69.4819 25.638C69.4819 25.998 69.4729 26.322 69.4549 26.61C69.4549 26.88 69.4279 27.168 69.3739 27.474C69.6619 27.456 69.9409 27.447 70.2109 27.447C70.4989 27.429 70.7869 27.411 71.0749 27.393V28.5H65.5669ZM79.6973 27.69C80.2553 27.69 80.6423 27.555 80.8583 27.285C81.0743 26.997 81.2003 26.61 81.2363 26.124C81.2723 25.62 81.2903 25.044 81.2903 24.396V11.625C81.2903 11.337 81.2903 11.067 81.2903 10.815C81.3083 10.545 81.3353 10.23 81.3713 9.87C81.0473 9.888 80.7233 9.906 80.3993 9.924C80.0933 9.942 79.7783 9.96 79.4543 9.978V8.844C80.2463 8.844 80.8583 8.808 81.2903 8.736C81.7403 8.664 82.0733 8.574 82.2893 8.466C82.5233 8.358 82.7033 8.241 82.8293 8.115H83.6123L83.6393 25.638C83.6393 25.998 83.6303 26.322 83.6123 26.61C83.5943 26.88 83.5583 27.168 83.5043 27.474C83.7923 27.456 84.0713 27.447 84.3413 27.447C84.6293 27.429 84.9173 27.411 85.2053 27.393V28.5H79.6973V27.69ZM85.3237 27.69C85.8817 27.69 86.2687 27.555 86.4847 27.285C86.7007 26.997 86.8267 26.61 86.8627 26.124C86.8987 25.62 86.9167 25.044 86.9167 24.396V18.24C86.9167 17.952 86.9257 17.682 86.9437 17.43C86.9617 17.16 86.9887 16.845 87.0247 16.485C86.7007 16.503 86.3767 16.521 86.0527 16.539C85.7467 16.557 85.4317 16.575 85.1077 16.593V15.459C85.8997 15.459 86.5117 15.423 86.9437 15.351C87.3757 15.279 87.6997 15.189 87.9157 15.081C88.1497 14.973 88.3297 14.856 88.4557 14.73H89.2387V25.638C89.2387 25.998 89.2297 26.322 89.2117 26.61C89.2117 26.88 89.1847 27.168 89.1307 27.474C89.4187 27.456 89.6977 27.447 89.9677 27.447C90.2557 27.429 90.5437 27.411 90.8317 27.393V28.5H85.3237V27.69ZM87.9157 12.057C87.5377 12.057 87.2047 11.904 86.9167 11.598C86.6287 11.292 86.4847 10.914 86.4847 10.464C86.4847 10.014 86.6287 9.636 86.9167 9.33C87.2227 9.006 87.5647 8.844 87.9427 8.844C88.3567 8.844 88.6987 9.006 88.9687 9.33C89.2567 9.636 89.4007 10.014 89.4007 10.464C89.4007 10.914 89.2477 11.292 88.9417 11.598C88.6537 11.904 88.3117 12.057 87.9157 12.057ZM90.9175 28.5V27.69C91.4755 27.69 91.8625 27.555 92.0785 27.285C92.2945 26.997 92.4205 26.61 92.4565 26.124C92.4925 25.62 92.5105 25.044 92.5105 24.396L92.5375 18.24C92.5375 17.952 92.5375 17.664 92.5375 17.376C92.5555 17.088 92.5915 16.791 92.6455 16.485C92.3215 16.503 91.9975 16.521 91.6735 16.539C91.3675 16.557 91.0525 16.575 90.7285 16.593V15.459C91.5205 15.459 92.1145 15.423 92.5105 15.351C92.9245 15.279 93.2305 15.189 93.4285 15.081C93.6265 14.973 93.7885 14.856 93.9145 14.73H94.6975C94.7155 14.856 94.7245 15 94.7245 15.162C94.7425 15.324 94.7605 15.504 94.7785 15.702C94.7965 15.9 94.8055 16.125 94.8055 16.377C95.2015 16.035 95.6335 15.729 96.1015 15.459C96.5875 15.189 97.0915 14.973 97.6135 14.811C98.1535 14.649 98.6845 14.568 99.2065 14.568C100.772 14.568 101.915 15.063 102.635 16.053C103.355 17.025 103.715 18.546 103.715 20.616V25.638C103.715 25.998 103.706 26.322 103.688 26.61C103.688 26.88 103.661 27.168 103.607 27.474C103.895 27.456 104.174 27.447 104.444 27.447C104.732 27.429 105.02 27.411 105.308 27.393V28.5H99.8005V27.69C100.358 27.69 100.745 27.555 100.961 27.285C101.177 26.997 101.303 26.61 101.339 26.124C101.375 25.62 101.393 25.044 101.393 24.396V20.616C101.375 19.068 101.114 17.898 100.61 17.106C100.124 16.314 99.3505 15.927 98.2885 15.945C97.6405 15.963 97.0015 16.134 96.3715 16.458C95.7595 16.782 95.2465 17.196 94.8325 17.7C94.8505 17.844 94.8595 18.006 94.8595 18.186C94.8595 18.366 94.8595 18.555 94.8595 18.753L94.8325 25.638C94.8325 25.998 94.8235 26.322 94.8055 26.61C94.8055 26.88 94.7785 27.168 94.7245 27.474C95.0125 27.456 95.2915 27.447 95.5615 27.447C95.8495 27.429 96.1375 27.411 96.4255 27.393V28.5H90.9175ZM111.852 28.932C110.61 28.932 109.485 28.644 108.477 28.068C107.487 27.474 106.704 26.646 106.128 25.584C105.552 24.504 105.264 23.235 105.264 21.777C105.264 20.517 105.543 19.338 106.101 18.24C106.677 17.142 107.478 16.26 108.504 15.594C109.53 14.91 110.718 14.568 112.068 14.568C112.824 14.568 113.526 14.694 114.174 14.946C114.84 15.18 115.425 15.549 115.929 16.053C116.433 16.539 116.829 17.16 117.117 17.916C117.405 18.654 117.549 19.527 117.549 20.535L108.045 20.697C108.045 22.065 108.189 23.271 108.477 24.315C108.783 25.341 109.269 26.142 109.935 26.718C110.601 27.276 111.456 27.555 112.5 27.555C113.058 27.555 113.625 27.456 114.201 27.258C114.795 27.06 115.344 26.79 115.848 26.448C116.352 26.106 116.757 25.728 117.063 25.314L117.711 25.854C117.225 26.61 116.64 27.213 115.956 27.663C115.272 28.113 114.57 28.437 113.85 28.635C113.13 28.833 112.464 28.932 111.852 28.932ZM108.126 19.563H115.011C115.011 18.915 114.912 18.294 114.714 17.7C114.534 17.088 114.228 16.593 113.796 16.215C113.364 15.819 112.797 15.621 112.095 15.621C111.051 15.621 110.178 15.936 109.476 16.566C108.792 17.178 108.342 18.177 108.126 19.563Z" fill="#071A1A"/>
<path d="M133.828 9.6L133.693 15.297H132.667C132.703 14.235 132.64 13.353 132.478 12.651C132.316 11.949 131.992 11.427 131.506 11.085C131.038 10.725 130.336 10.554 129.4 10.572L127.105 10.599L126.214 25.287C126.196 25.773 126.169 26.196 126.133 26.556C126.097 26.898 126.061 27.186 126.025 27.42C126.277 27.402 126.529 27.393 126.781 27.393C127.033 27.375 127.276 27.357 127.51 27.339C127.762 27.321 128.014 27.312 128.266 27.312L128.212 28.5H121.975L122.029 27.609C122.623 27.573 123.046 27.411 123.298 27.123C123.568 26.835 123.748 26.448 123.838 25.962C123.928 25.458 123.991 24.9 124.027 24.288L124.864 10.599L122.083 10.626C120.949 10.626 120.13 11.004 119.626 11.76C119.122 12.516 118.825 13.695 118.735 15.297H117.736L118.195 9.6H133.828ZM143.593 28.797C142.747 28.797 142.171 28.572 141.865 28.122C141.559 27.672 141.406 27.033 141.406 26.205C141.406 25.701 141.442 25.107 141.514 24.423C141.604 23.721 141.694 22.983 141.784 22.209C141.892 21.435 141.982 20.652 142.054 19.86C142.144 19.068 142.189 18.321 142.189 17.619C142.189 17.403 142.153 17.169 142.081 16.917C142.009 16.665 141.883 16.449 141.703 16.269C141.523 16.071 141.253 15.972 140.893 15.972C140.407 15.972 139.921 16.197 139.435 16.647C138.949 17.079 138.481 17.673 138.031 18.429C137.599 19.185 137.203 20.049 136.843 21.021C136.501 21.975 136.231 22.974 136.033 24.018C135.835 25.044 135.736 26.061 135.736 27.069C135.736 27.339 135.736 27.591 135.736 27.825C135.754 28.041 135.772 28.266 135.79 28.5H133.576C133.558 28.374 133.549 28.266 133.549 28.176C133.549 28.068 133.549 27.942 133.549 27.798C133.549 27.312 133.576 26.565 133.63 25.557C133.684 24.549 133.756 23.406 133.846 22.128C133.936 20.832 134.035 19.509 134.143 18.159C134.269 16.809 134.395 15.531 134.521 14.325C134.647 13.101 134.773 12.075 134.899 11.247C134.971 10.779 135.016 10.482 135.034 10.356C135.07 10.23 135.106 10.05 135.142 9.816L133.252 9.924L133.36 8.844C134.152 8.844 134.764 8.808 135.196 8.736C135.646 8.664 135.988 8.574 136.222 8.466C136.456 8.358 136.645 8.241 136.789 8.115H137.572C137.5 8.565 137.419 9.069 137.329 9.627C137.239 10.185 137.149 10.734 137.059 11.274C136.969 11.814 136.897 12.291 136.843 12.705C136.789 13.155 136.717 13.74 136.627 14.46C136.555 15.162 136.474 15.909 136.384 16.701C136.312 17.475 136.24 18.222 136.168 18.942C136.114 19.662 136.069 20.256 136.033 20.724H136.114C136.726 19.086 137.329 17.835 137.923 16.971C138.517 16.107 139.102 15.513 139.678 15.189C140.272 14.865 140.857 14.703 141.433 14.703C142.513 14.703 143.278 15.054 143.728 15.756C144.178 16.44 144.403 17.259 144.403 18.213C144.403 19.203 144.34 20.22 144.214 21.264C144.088 22.29 143.962 23.244 143.836 24.126C143.71 24.99 143.647 25.683 143.647 26.205C143.647 26.529 143.683 26.817 143.755 27.069C143.845 27.321 144.052 27.447 144.376 27.447C144.682 27.447 145.015 27.258 145.375 26.88C145.753 26.484 146.077 25.8 146.347 24.828L147.022 25.017C146.968 25.323 146.86 25.692 146.698 26.124C146.536 26.556 146.311 26.979 146.023 27.393C145.753 27.789 145.411 28.122 144.997 28.392C144.601 28.662 144.133 28.797 143.593 28.797ZM152.994 14.703C153.642 14.703 154.254 14.802 154.83 15C155.406 15.198 155.874 15.522 156.234 15.972C156.594 16.422 156.774 17.034 156.774 17.808C156.774 18.546 156.522 19.185 156.018 19.725C155.514 20.265 154.857 20.715 154.047 21.075C153.237 21.417 152.373 21.696 151.455 21.912C150.537 22.128 149.655 22.281 148.809 22.371C148.809 23.487 148.917 24.423 149.133 25.179C149.367 25.935 149.709 26.502 150.159 26.88C150.609 27.258 151.185 27.447 151.887 27.447C152.409 27.447 152.931 27.33 153.453 27.096C153.993 26.862 154.506 26.511 154.992 26.043C155.478 25.557 155.919 24.936 156.315 24.18L157.206 24.693C156.702 25.629 156.162 26.403 155.586 27.015C155.01 27.627 154.38 28.077 153.696 28.365C153.012 28.653 152.256 28.797 151.428 28.797C149.718 28.797 148.458 28.266 147.648 27.204C146.838 26.124 146.433 24.711 146.433 22.965C146.433 21.921 146.568 20.904 146.838 19.914C147.108 18.924 147.513 18.042 148.053 17.268C148.593 16.476 149.277 15.855 150.105 15.405C150.933 14.937 151.896 14.703 152.994 14.703ZM152.616 15.621C151.788 15.621 151.104 15.9 150.564 16.458C150.042 17.016 149.637 17.736 149.349 18.618C149.079 19.5 148.908 20.427 148.836 21.399C149.79 21.273 150.699 21.048 151.563 20.724C152.427 20.4 153.138 19.986 153.696 19.482C154.254 18.96 154.533 18.357 154.533 17.673C154.533 17.097 154.371 16.611 154.047 16.215C153.741 15.819 153.264 15.621 152.616 15.621ZM158.974 28.5C158.956 28.374 158.947 28.266 158.947 28.176C158.947 28.068 158.947 27.942 158.947 27.798C158.947 27.492 158.956 27.132 158.974 26.718C158.992 26.286 159.028 25.719 159.082 25.017C159.154 24.315 159.253 23.397 159.379 22.263C159.505 21.093 159.604 20.211 159.676 19.617C159.748 19.023 159.802 18.591 159.838 18.321C159.874 18.033 159.892 17.799 159.892 17.619C159.91 17.259 159.883 16.908 159.811 16.566C159.757 16.224 159.541 16.053 159.163 16.053C158.875 16.053 158.542 16.251 158.164 16.647C157.786 17.043 157.462 17.718 157.192 18.672L156.436 18.51C156.49 18.186 156.598 17.817 156.76 17.403C156.94 16.971 157.174 16.548 157.462 16.134C157.75 15.72 158.101 15.378 158.515 15.108C158.929 14.838 159.406 14.703 159.946 14.703C160.756 14.703 161.296 14.982 161.566 15.54C161.836 16.098 161.953 16.845 161.917 17.781C161.899 18.177 161.845 18.618 161.755 19.104C161.683 19.572 161.602 20.067 161.512 20.589H161.593C162.115 19.023 162.655 17.817 163.213 16.971C163.789 16.125 164.365 15.54 164.941 15.216C165.535 14.874 166.12 14.703 166.696 14.703C167.236 14.703 167.686 14.847 168.046 15.135C168.406 15.405 168.586 15.783 168.586 16.269C168.586 16.593 168.469 16.89 168.235 17.16C168.019 17.43 167.722 17.565 167.344 17.565C167.02 17.565 166.741 17.466 166.507 17.268C166.273 17.07 166.138 16.791 166.102 16.431C165.598 16.323 165.103 16.485 164.617 16.917C164.149 17.349 163.699 17.97 163.267 18.78C162.853 19.572 162.484 20.463 162.16 21.453C161.854 22.443 161.611 23.451 161.431 24.477C161.251 25.503 161.161 26.457 161.161 27.339C161.161 27.609 161.161 27.816 161.161 27.96C161.179 28.086 161.197 28.266 161.215 28.5H158.974ZM174.995 14.703C175.535 14.703 176.129 14.748 176.777 14.838C177.425 14.91 178.037 15.018 178.613 15.162C178.469 16.242 178.325 17.322 178.181 18.402C178.055 19.464 177.929 20.481 177.803 21.453C177.695 22.407 177.605 23.271 177.533 24.045C177.461 24.801 177.425 25.395 177.425 25.827C177.425 26.187 177.452 26.547 177.506 26.907C177.56 27.267 177.785 27.447 178.181 27.447C178.487 27.447 178.82 27.249 179.18 26.853C179.558 26.457 179.882 25.782 180.152 24.828L180.908 24.99C180.854 25.314 180.737 25.692 180.557 26.124C180.395 26.538 180.17 26.952 179.882 27.366C179.594 27.78 179.243 28.122 178.829 28.392C178.415 28.662 177.938 28.797 177.398 28.797C176.678 28.797 176.165 28.572 175.859 28.122C175.553 27.672 175.4 27.087 175.4 26.367C175.4 25.845 175.445 25.278 175.535 24.666C175.643 24.054 175.76 23.415 175.886 22.749H175.805C175.373 24.081 174.923 25.152 174.455 25.962C174.005 26.754 173.546 27.357 173.078 27.771C172.628 28.185 172.187 28.455 171.755 28.581C171.323 28.725 170.918 28.797 170.54 28.797C169.568 28.797 168.749 28.437 168.083 27.717C167.435 26.997 167.111 25.791 167.111 24.099C167.111 22.839 167.273 21.642 167.597 20.508C167.921 19.374 168.407 18.375 169.055 17.511C169.721 16.629 170.549 15.945 171.539 15.459C172.529 14.955 173.681 14.703 174.995 14.703ZM174.158 15.675C173.348 15.675 172.637 15.9 172.025 16.35C171.431 16.8 170.936 17.412 170.54 18.186C170.144 18.942 169.847 19.797 169.649 20.751C169.469 21.687 169.379 22.65 169.379 23.64C169.379 24.792 169.505 25.746 169.757 26.502C170.009 27.24 170.468 27.609 171.134 27.609C171.62 27.609 172.106 27.366 172.592 26.88C173.096 26.394 173.564 25.746 173.996 24.936C174.428 24.108 174.815 23.19 175.157 22.182C175.499 21.156 175.769 20.112 175.967 19.05C176.165 17.988 176.264 16.971 176.264 15.999C175.994 15.891 175.679 15.81 175.319 15.756C174.959 15.702 174.572 15.675 174.158 15.675ZM180.038 35.385V34.575C180.542 34.575 180.893 34.404 181.091 34.062C181.307 33.72 181.442 33.261 181.496 32.685C181.568 32.127 181.631 31.497 181.685 30.795C181.811 29.247 181.937 27.753 182.063 26.313C182.207 24.855 182.333 23.532 182.441 22.344C182.567 21.138 182.666 20.112 182.738 19.266C182.81 18.42 182.846 17.826 182.846 17.484C182.846 17.124 182.81 16.8 182.738 16.512C182.684 16.206 182.477 16.053 182.117 16.053C181.829 16.053 181.496 16.251 181.118 16.647C180.758 17.043 180.443 17.718 180.173 18.672L179.39 18.51C179.444 18.186 179.552 17.817 179.714 17.403C179.894 16.971 180.128 16.548 180.416 16.134C180.704 15.72 181.055 15.378 181.469 15.108C181.883 14.838 182.36 14.703 182.9 14.703C183.71 14.703 184.25 14.991 184.52 15.567C184.808 16.125 184.952 16.782 184.952 17.538C184.952 18.078 184.907 18.627 184.817 19.185C184.745 19.725 184.664 20.202 184.574 20.616H184.655C185.159 18.96 185.672 17.709 186.194 16.863C186.734 16.017 187.283 15.45 187.841 15.162C188.399 14.856 188.939 14.703 189.461 14.703C190.289 14.703 190.973 14.946 191.513 15.432C192.053 15.9 192.449 16.53 192.701 17.322C192.971 18.114 193.106 18.987 193.106 19.941C193.106 21.687 192.8 23.226 192.188 24.558C191.594 25.89 190.703 26.934 189.515 27.69C188.345 28.428 186.887 28.797 185.141 28.797C184.907 28.797 184.682 28.788 184.466 28.77C184.268 28.752 184.07 28.734 183.872 28.716C183.782 30.084 183.71 31.137 183.656 31.875C183.62 32.631 183.584 33.18 183.548 33.522C183.53 33.882 183.494 34.161 183.44 34.359C183.728 34.341 184.007 34.323 184.277 34.305C184.565 34.305 184.853 34.296 185.141 34.278V35.385H180.038ZM185.6 27.879C186.356 27.879 187.022 27.726 187.598 27.42C188.174 27.114 188.66 26.709 189.056 26.205C189.47 25.683 189.803 25.098 190.055 24.45C190.307 23.802 190.487 23.136 190.595 22.452C190.721 21.75 190.784 21.075 190.784 20.427C190.784 19.599 190.73 18.852 190.622 18.186C190.514 17.502 190.325 16.962 190.055 16.566C189.785 16.17 189.398 15.972 188.894 15.972C188.408 15.972 187.922 16.233 187.436 16.755C186.95 17.277 186.5 17.979 186.086 18.861C185.672 19.725 185.303 20.688 184.979 21.75C184.655 22.812 184.412 23.892 184.25 24.99C184.178 25.386 184.115 25.8 184.061 26.232C184.025 26.646 183.989 27.087 183.953 27.555C184.241 27.645 184.511 27.726 184.763 27.798C185.033 27.852 185.312 27.879 185.6 27.879ZM194.057 35.817C193.445 35.781 192.95 35.601 192.572 35.277C192.194 34.971 192.005 34.584 192.005 34.116C192.005 33.702 192.131 33.387 192.383 33.171C192.635 32.973 192.878 32.874 193.112 32.874C193.922 32.874 194.309 33.342 194.273 34.278C194.381 34.332 194.48 34.377 194.57 34.413C194.66 34.449 194.759 34.467 194.867 34.467C195.263 34.485 195.668 34.341 196.082 34.035C196.514 33.729 196.919 33.342 197.297 32.874C197.693 32.424 198.035 31.974 198.323 31.524C198.629 31.092 198.854 30.759 198.998 30.525C198.836 29.481 198.647 28.41 198.431 27.312C198.215 26.196 197.963 25.089 197.675 23.991C197.405 22.875 197.099 21.804 196.757 20.778C196.433 19.734 196.082 18.753 195.704 17.835C195.578 17.529 195.416 17.214 195.218 16.89C195.02 16.566 194.741 16.422 194.381 16.458C194.039 16.494 193.778 16.764 193.598 17.268C193.436 17.772 193.391 18.438 193.463 19.266L192.599 19.374C192.545 18.888 192.536 18.375 192.572 17.835C192.626 17.295 192.743 16.791 192.923 16.323C193.103 15.837 193.364 15.45 193.706 15.162C194.048 14.856 194.498 14.703 195.056 14.703C195.668 14.703 196.163 14.865 196.541 15.189C196.937 15.513 197.252 15.909 197.486 16.377C197.738 16.845 197.945 17.304 198.107 17.754C198.449 18.672 198.782 19.725 199.106 20.913C199.43 22.101 199.709 23.316 199.943 24.558C200.195 25.782 200.384 26.925 200.51 27.987H200.564C201.068 27.105 201.554 26.133 202.022 25.071C202.49 24.009 202.877 22.929 203.183 21.831C203.489 20.715 203.642 19.671 203.642 18.699C203.642 18.249 203.597 17.853 203.507 17.511C203.435 17.169 203.345 16.926 203.237 16.782C203.165 16.836 203.066 16.881 202.94 16.917C202.832 16.935 202.706 16.944 202.562 16.944C202.238 16.944 201.977 16.845 201.779 16.647C201.581 16.431 201.482 16.179 201.482 15.891C201.482 15.495 201.608 15.198 201.86 15C202.13 14.802 202.427 14.703 202.751 14.703C203.309 14.703 203.741 14.874 204.047 15.216C204.353 15.558 204.569 15.99 204.695 16.512C204.839 17.034 204.911 17.583 204.911 18.159C204.911 19.347 204.74 20.562 204.398 21.804C204.056 23.046 203.606 24.27 203.048 25.476C202.508 26.682 201.932 27.843 201.32 28.959C200.42 30.579 199.556 31.902 198.728 32.928C197.918 33.954 197.126 34.692 196.352 35.142C195.578 35.61 194.813 35.835 194.057 35.817Z" fill="#4D9595"/>
<defs>
<clipPath id="clip0_23597_500">
<rect width="37" height="37" fill="white"/>
</clipPath>
</defs>
</svg>
